<svg width="100" height="96" viewBox="0 0 100 96" fill="none" xmlns="http://www.w3.org/2000/svg">
<g filter="url(#filter0_dd_4_1576)">
<rect x="16" y="8" width="64" height="64" rx="12" fill="url(#paint0_linear_4_1576)"/>
<g clip-path="url(#clip0_4_1576)">
<path fill-rule="evenodd" clip-rule="evenodd" d="M39.4481 30.1147C38.6667 30.896 38.6667 32.152 38.6667 34.6667V46.6667C38.6667 49.1814 38.6667 50.4374 39.4481 51.2187C40.2294 52 41.4854 52 44.0001 52H52.0001C54.5147 52 55.7707 52 56.5521 51.2187C57.3334 50.4374 57.3334 49.1814 57.3334 46.6667V34.6667C57.3334 32.152 57.3334 30.896 56.5521 30.1147C55.7707 29.3334 54.5147 29.3334 52.0001 29.3334H44.0001C41.4854 29.3334 40.2294 29.3334 39.4481 30.1147ZM44.0001 34.6667C43.6465 34.6667 43.3073 34.8072 43.0573 35.0572C42.8072 35.3073 42.6667 35.6464 42.6667 36C42.6667 36.3537 42.8072 36.6928 43.0573 36.9428C43.3073 37.1929 43.6465 37.3334 44.0001 37.3334H52.0001C52.3537 37.3334 52.6928 37.1929 52.9429 36.9428C53.1929 36.6928 53.3334 36.3537 53.3334 36C53.3334 35.6464 53.1929 35.3073 52.9429 35.0572C52.6928 34.8072 52.3537 34.6667 52.0001 34.6667H44.0001ZM44.0001 40C43.6465 40 43.3073 40.1405 43.0573 40.3906C42.8072 40.6406 42.6667 40.9798 42.6667 41.3334C42.6667 41.687 42.8072 42.0261 43.0573 42.2762C43.3073 42.5262 43.6465 42.6667 44.0001 42.6667H52.0001C52.3537 42.6667 52.6928 42.5262 52.9429 42.2762C53.1929 42.0261 53.3334 41.687 53.3334 41.3334C53.3334 40.9798 53.1929 40.6406 52.9429 40.3906C52.6928 40.1405 52.3537 40 52.0001 40H44.0001ZM44.0001 45.3334C43.6465 45.3334 43.3073 45.4738 43.0573 45.7239C42.8072 45.9739 42.6667 46.3131 42.6667 46.6667C42.6667 47.0203 42.8072 47.3595 43.0573 47.6095C43.3073 47.8596 43.6465 48 44.0001 48H49.3334C49.687 48 50.0262 47.8596 50.2762 47.6095C50.5263 47.3595 50.6667 47.0203 50.6667 46.6667C50.6667 46.3131 50.5263 45.9739 50.2762 45.7239C50.0262 45.4738 49.687 45.3334 49.3334 45.3334H44.0001Z" fill="white"/>
</g>
</g>
<defs>
<filter id="filter0_dd_4_1576" x="-4" y="-8" width="104" height="104" filterUnits="userSpaceOnUse" color-interpolation-filters="sRGB">
<feFlood flood-opacity="0" result="BackgroundImageFix"/>
<feColorMatrix in="SourceAlpha" type="matrix" values="0 0 0 0 0 0 0 0 0 0 0 0 0 0 0 0 0 0 127 0" result="hardAlpha"/>
<feMorphology radius="5" operator="erode" in="SourceAlpha" result="effect1_dropShadow_4_1576"/>
<feOffset dy="7"/>
<feGaussianBlur stdDeviation="5"/>
<feComposite in2="hardAlpha" operator="out"/>
<feColorMatrix type="matrix" values="0 0 0 0 0.25098 0 0 0 0 0.25098 0 0 0 0 0.25098 0 0 0 0.4 0"/>
<feBlend mode="normal" in2="BackgroundImageFix" result="effect1_dropShadow_4_1576"/>
<feColorMatrix in="SourceAlpha" type="matrix" values="0 0 0 0 0 0 0 0 0 0 0 0 0 0 0 0 0 0 127 0" result="hardAlpha"/>
<feOffset dy="4"/>
<feGaussianBlur stdDeviation="10"/>
<feComposite in2="hardAlpha" operator="out"/>
<feColorMatrix type="matrix" values="0 0 0 0 0 0 0 0 0 0 0 0 0 0 0 0 0 0 0.14 0"/>
<feBlend mode="normal" in2="effect1_dropShadow_4_1576" result="effect2_dropShadow_4_1576"/>
<feBlend mode="normal" in="SourceGraphic" in2="effect2_dropShadow_4_1576" result="shape"/>
</filter>
<linearGradient id="paint0_linear_4_1576" x1="58.1436" y1="2.14359" x2="37.8564" y2="77.8564" gradientUnits="userSpaceOnUse">
<stop stop-color="#42424A"/>
<stop offset="1" stop-color="#191919"/>
</linearGradient>
<clipPath id="clip0_4_1576">
<rect width="24" height="24" fill="white" transform="translate(36 28)"/>
</clipPath>
</defs>
</svg>
