<svg width="24" height="24" viewBox="0 0 24 24" fill="none" xmlns="http://www.w3.org/2000/svg">
<path d="M2.55205 24C1.83892 24 1.2353 23.7529 0.741179 23.2588C0.24706 22.7647 0 22.1611 0 21.4479V2.55206C0 1.83892 0.24706 1.2353 0.741179 0.741179C1.2353 0.24706 1.83892 0 2.55205 0H21.4479C22.1611 0 22.7647 0.24706 23.2588 0.741179C23.7529 1.2353 24 1.83892 24 2.55206V21.4479C24 22.1611 23.7529 22.7647 23.2588 23.2588C22.7647 23.7529 22.1611 24 21.4479 24H2.55205ZM2.55205 21.8824H21.4479C21.5566 21.8824 21.6561 21.8371 21.7466 21.7466C21.8371 21.6561 21.8824 21.5566 21.8824 21.4479V2.55206C21.8824 2.44344 21.8371 2.34388 21.7466 2.25336C21.6561 2.16287 21.5566 2.11762 21.4479 2.11762H2.55205C2.44344 2.11762 2.34388 2.16287 2.25336 2.25336C2.16286 2.34388 2.11762 2.44344 2.11762 2.55206V21.4479C2.11762 21.5566 2.16286 21.6561 2.25336 21.7466C2.34388 21.8371 2.44344 21.8824 2.55205 21.8824ZM5.86431 18.7059H18.2443C18.4995 18.7059 18.6886 18.59 18.8117 18.3584C18.9348 18.1267 18.9158 17.9023 18.7547 17.6851L15.3882 13.1756C15.2561 13.0055 15.086 12.9204 14.8778 12.9204C14.6697 12.9204 14.4995 13.0055 14.3674 13.1756L10.914 17.6742L8.60092 14.7095C8.4688 14.5485 8.30093 14.4679 8.09731 14.4679C7.89368 14.4679 7.72581 14.553 7.59369 14.7231L5.36747 17.6851C5.19733 17.9023 5.1738 18.1267 5.29689 18.3584C5.41997 18.59 5.60911 18.7059 5.86431 18.7059Z" fill="#7F9ED1"/>
</svg>
