<svg width="25" height="25" viewBox="0 0 25 25" fill="none" xmlns="http://www.w3.org/2000/svg">
<path d="M23.7435 4.45955C23.7284 4.30659 23.658 4.16439 23.5456 4.05959C23.4332 3.9548 23.2864 3.89461 23.1327 3.8903V3.88855H9.90599C9.7491 3.88886 9.59793 3.94747 9.48183 4.05299C9.36573 4.15851 9.29299 4.30341 9.27774 4.45955H9.27124V7.7443H14.8567C15.1502 7.7443 15.3885 7.9683 15.4175 8.25405H15.4232V15.562H18.1755L19.7975 17.1838C19.8733 17.2968 19.9833 17.3824 20.1115 17.428C20.2396 17.4736 20.379 17.4769 20.5091 17.4372C20.6392 17.3976 20.7531 17.3172 20.834 17.2078C20.915 17.0985 20.9586 16.9661 20.9585 16.83V15.562H23.133V15.5601C23.2762 15.5563 23.4138 15.5042 23.5236 15.4122C23.6333 15.3201 23.7086 15.1936 23.7372 15.0533H23.75V4.45955H23.7435Z" fill="#B1B1B1"/>
<path d="M13.61 8.99097H1.801V8.99247C1.66385 8.99636 1.53281 9.05012 1.43245 9.14368C1.33208 9.23724 1.26926 9.36417 1.25575 9.50072H1.25V18.9595H1.2615C1.28714 19.0847 1.35442 19.1976 1.45238 19.2797C1.55035 19.3618 1.67322 19.4083 1.801 19.4117V19.4132H3.74225V20.5455C3.74236 20.6668 3.78142 20.7849 3.85369 20.8824C3.92595 20.9798 4.0276 21.0515 4.14367 21.0869C4.25973 21.1222 4.38409 21.1194 4.49842 21.0788C4.61275 21.0381 4.71101 20.9619 4.77875 20.8612L6.22675 19.4132H13.61C13.884 19.4132 14.1128 19.2182 14.165 18.9595H14.1763V9.50072H14.1705C14.1571 9.36131 14.0923 9.23188 13.9886 9.13765C13.885 9.04342 13.7501 8.99113 13.61 8.99097Z" fill="#B1B1B1"/>
</svg>
