<svg width="78" height="46" viewBox="0 0 78 46" fill="none" xmlns="http://www.w3.org/2000/svg">
<path d="M31.5521 24C30.8389 24 30.2353 23.7529 29.7412 23.2588C29.2471 22.7647 29 22.1611 29 21.4479V2.55206C29 1.83892 29.2471 1.2353 29.7412 0.741179C30.2353 0.24706 30.8389 0 31.5521 0H50.4479C51.1611 0 51.7647 0.24706 52.2588 0.741179C52.7529 1.2353 53 1.83892 53 2.55206V21.4479C53 22.1611 52.7529 22.7647 52.2588 23.2588C51.7647 23.7529 51.1611 24 50.4479 24H31.5521ZM31.5521 21.8824H50.4479C50.5566 21.8824 50.6561 21.8371 50.7466 21.7466C50.8371 21.6561 50.8824 21.5566 50.8824 21.4479V2.55206C50.8824 2.44344 50.8371 2.34388 50.7466 2.25336C50.6561 2.16287 50.5566 2.11762 50.4479 2.11762H31.5521C31.4434 2.11762 31.3439 2.16287 31.2534 2.25336C31.1629 2.34388 31.1176 2.44344 31.1176 2.55206V21.4479C31.1176 21.5566 31.1629 21.6561 31.2534 21.7466C31.3439 21.8371 31.4434 21.8824 31.5521 21.8824ZM34.8643 18.7059H47.2443C47.4995 18.7059 47.6886 18.59 47.8117 18.3584C47.9348 18.1267 47.9158 17.9023 47.7547 17.6851L44.3882 13.1756C44.2561 13.0055 44.086 12.9204 43.8778 12.9204C43.6697 12.9204 43.4995 13.0055 43.3674 13.1756L39.914 17.6742L37.6009 14.7095C37.4688 14.5485 37.3009 14.4679 37.0973 14.4679C36.8937 14.4679 36.7258 14.553 36.5937 14.7231L34.3675 17.6851C34.1973 17.9023 34.1738 18.1267 34.2969 18.3584C34.42 18.59 34.6091 18.7059 34.8643 18.7059Z" fill="#7F9ED1"/>
<path d="M9.57129 45.1641C6.85059 45.1641 5.12793 43.1885 5.12793 40.0645C5.12793 36.9678 6.87109 34.9717 9.57129 34.9717C11.7178 34.9717 13.3516 36.2773 13.666 38.2461H12.4219C12.1074 36.9541 10.9795 36.1064 9.57129 36.1064C7.64355 36.1064 6.39258 37.665 6.39258 40.0645C6.39258 42.4844 7.62988 44.0293 9.57812 44.0293C11.0273 44.0293 12.0664 43.332 12.4219 42.1289H13.666C13.2148 44.0771 11.752 45.1641 9.57129 45.1641ZM14.999 45V35.1357H16.1885V39.0254H16.2158C16.6123 38.2324 17.3916 37.7676 18.4717 37.7676C20.0303 37.7676 20.9736 38.8203 20.9736 40.4062V45H19.7842V40.625C19.7842 39.4971 19.2168 38.8203 18.1025 38.8203C16.9199 38.8203 16.1885 39.627 16.1885 40.8574V45H14.999ZM25.4307 45.123C23.4619 45.123 22.1357 43.708 22.1357 41.4453C22.1357 39.1758 23.4619 37.7676 25.4307 37.7676C27.3926 37.7676 28.7188 39.1758 28.7188 41.4453C28.7188 43.708 27.3926 45.123 25.4307 45.123ZM25.4307 44.0771C26.6885 44.0771 27.5088 43.1201 27.5088 41.4453C27.5088 39.7705 26.6885 38.8135 25.4307 38.8135C24.1729 38.8135 23.3457 39.7705 23.3457 41.4453C23.3457 43.1201 24.1729 44.0771 25.4307 44.0771ZM32.8682 45.123C30.8994 45.123 29.5732 43.708 29.5732 41.4453C29.5732 39.1758 30.8994 37.7676 32.8682 37.7676C34.8301 37.7676 36.1562 39.1758 36.1562 41.4453C36.1562 43.708 34.8301 45.123 32.8682 45.123ZM32.8682 44.0771C34.126 44.0771 34.9463 43.1201 34.9463 41.4453C34.9463 39.7705 34.126 38.8135 32.8682 38.8135C31.6104 38.8135 30.7832 39.7705 30.7832 41.4453C30.7832 43.1201 31.6104 44.0771 32.8682 44.0771ZM37.2363 39.8525C37.2363 38.6357 38.3232 37.7676 39.8887 37.7676C41.3584 37.7676 42.4385 38.6426 42.4932 39.8457H41.3584C41.2764 39.1621 40.7227 38.7383 39.8477 38.7383C38.9795 38.7383 38.4053 39.1689 38.4053 39.791C38.4053 40.2832 38.7812 40.6113 39.5879 40.8164L40.6885 41.083C42.124 41.4453 42.6436 41.9648 42.6436 43.0107C42.6436 44.248 41.4746 45.123 39.8135 45.123C38.2549 45.123 37.168 44.2754 37.0449 43.0176H38.2344C38.3643 43.7559 38.9248 44.1523 39.8887 44.1523C40.8525 44.1523 41.4473 43.7422 41.4473 43.0996C41.4473 42.5938 41.1533 42.3203 40.3535 42.1084L39.1025 41.7871C37.8516 41.4658 37.2363 40.8232 37.2363 39.8525ZM46.7314 38.7998C45.6172 38.7998 44.8379 39.6543 44.7627 40.8369H48.625C48.5977 39.6475 47.8525 38.7998 46.7314 38.7998ZM48.5977 42.9629H49.7666C49.5615 44.207 48.3584 45.123 46.8066 45.123C44.7695 45.123 43.5322 43.708 43.5322 41.4727C43.5322 39.2646 44.79 37.7676 46.752 37.7676C48.6729 37.7676 49.8555 39.1621 49.8555 41.3154V41.7666H44.7559V41.835C44.7559 43.1953 45.5557 44.0908 46.834 44.0908C47.7363 44.0908 48.3994 43.6328 48.5977 42.9629ZM55.3447 45H54.1143V35.1357H60.1025V36.2432H55.3447V39.6338H59.7129V40.7275H55.3447V45ZM61.3877 45V37.8906H62.5771V45H61.3877ZM61.9824 36.6943C61.5791 36.6943 61.2441 36.3594 61.2441 35.9561C61.2441 35.5459 61.5791 35.2178 61.9824 35.2178C62.3926 35.2178 62.7275 35.5459 62.7275 35.9561C62.7275 36.3594 62.3926 36.6943 61.9824 36.6943ZM64.2451 45V35.1357H65.4346V45H64.2451ZM69.8916 38.7998C68.7773 38.7998 67.998 39.6543 67.9229 40.8369H71.7852C71.7578 39.6475 71.0127 38.7998 69.8916 38.7998ZM71.7578 42.9629H72.9268C72.7217 44.207 71.5186 45.123 69.9668 45.123C67.9297 45.123 66.6924 43.708 66.6924 41.4727C66.6924 39.2646 67.9502 37.7676 69.9121 37.7676C71.833 37.7676 73.0156 39.1621 73.0156 41.3154V41.7666H67.916V41.835C67.916 43.1953 68.7158 44.0908 69.9941 44.0908C70.8965 44.0908 71.5596 43.6328 71.7578 42.9629Z" fill="#5C6C87"/>
</svg>
