<svg width="19" height="21" viewBox="0 0 19 21" fill="none" xmlns="http://www.w3.org/2000/svg">
<path fill-rule="evenodd" clip-rule="evenodd" d="M8.24583 0.33744C10.1802 -0.0979763 11.5833 1.56452 11.5833 3.20827V17.7916C11.5833 19.4354 10.1802 21.0979 8.24583 20.6624C3.59792 19.6166 0.125 15.4645 0.125 10.4999C0.125 5.53536 3.59792 1.38327 8.24583 0.33744ZM13.9719 6.63848C14.1672 6.4432 14.4321 6.3335 14.7083 6.3335C14.9845 6.3335 15.2495 6.4432 15.4448 6.63848L18.5698 9.76348C18.7651 9.95882 18.8748 10.2237 18.8748 10.4999C18.8748 10.7762 18.7651 11.0411 18.5698 11.2364L15.4448 14.3614C15.2483 14.5511 14.9852 14.6561 14.7121 14.6538C14.439 14.6514 14.1777 14.5418 13.9846 14.3487C13.7914 14.1556 13.6819 13.8943 13.6795 13.6212C13.6771 13.3481 13.7821 13.0849 13.9719 12.8885L15.3187 11.5416H6.375C6.09873 11.5416 5.83378 11.4319 5.63843 11.2365C5.44308 11.0412 5.33333 10.7762 5.33333 10.4999C5.33333 10.2237 5.44308 9.95872 5.63843 9.76337C5.83378 9.56802 6.09873 9.45827 6.375 9.45827H15.3187L13.9719 8.1114C13.7766 7.91606 13.6669 7.65115 13.6669 7.37494C13.6669 7.09873 13.7766 6.83382 13.9719 6.63848Z" fill="#B1B1B1"/>
</svg>
