<svg width="100" height="96" viewBox="0 0 100 96" fill="none" xmlns="http://www.w3.org/2000/svg">
<g filter="url(#filter0_dd_4_1594)">
<rect x="16" y="8" width="64" height="64" rx="12" fill="url(#paint0_linear_4_1594)"/>
<g clip-path="url(#clip0_4_1594)">
<g clip-path="url(#clip1_4_1594)">
<path d="M57.3571 36.8571C57.3571 38.4602 56.8151 39.9421 55.731 41.303C54.6469 42.6639 53.1679 43.7393 51.2938 44.5293C49.4197 45.3193 47.3813 45.7143 45.1786 45.7143C44.1868 45.7143 43.1719 45.622 42.1339 45.4375C40.7039 46.4524 39.1008 47.1905 37.3248 47.6518C36.9096 47.7556 36.4137 47.8478 35.8371 47.9286H35.7852C35.6583 47.9286 35.5401 47.8824 35.4305 47.7902C35.321 47.6979 35.2547 47.5768 35.2316 47.4269C35.2201 47.3923 35.2143 47.3548 35.2143 47.3144C35.2143 47.2741 35.2172 47.2366 35.2229 47.202C35.2287 47.1674 35.2402 47.1328 35.2575 47.0982L35.3008 47.0117L35.3613 46.9166L35.4305 46.8301L35.5084 46.7436L35.5776 46.6657C35.6352 46.5965 35.7679 46.4524 35.9754 46.2332C36.183 46.0141 36.333 45.844 36.4252 45.7229C36.5175 45.6018 36.6472 45.4346 36.8145 45.2212C36.9817 45.0079 37.1258 44.7859 37.2469 44.5552C37.368 44.3246 37.4862 44.0709 37.6016 43.7941C36.1715 42.9637 35.0471 41.9431 34.2282 40.7321C33.4094 39.5212 33 38.2295 33 36.8571C33 35.2541 33.542 33.7721 34.6261 32.4113C35.7102 31.0504 37.1893 29.975 39.0633 29.185C40.9374 28.395 42.9758 28 45.1786 28C47.3813 28 49.4197 28.395 51.2938 29.185C53.1679 29.975 54.6469 31.0504 55.731 32.4113C56.8151 33.7721 57.3571 35.2541 57.3571 36.8571ZM64 41.2857C64 42.6696 63.5906 43.9642 62.7718 45.1694C61.9529 46.3745 60.8285 47.3923 59.3984 48.2226C59.5138 48.4994 59.632 48.7531 59.7531 48.9838C59.8742 49.2145 60.0183 49.4365 60.1855 49.6498C60.3528 49.8632 60.4825 50.0304 60.5748 50.1515C60.667 50.2726 60.817 50.4427 61.0246 50.6618C61.2321 50.8809 61.3648 51.0251 61.4224 51.0943C61.434 51.1058 61.457 51.1318 61.4916 51.1721C61.5262 51.2125 61.5522 51.2413 61.5695 51.2586C61.5868 51.2759 61.6098 51.3048 61.6387 51.3451C61.6675 51.3855 61.6877 51.4172 61.6992 51.4403L61.7425 51.5268L61.7771 51.6306L61.7857 51.743L61.7684 51.8555C61.7338 52.0169 61.6589 52.1438 61.5435 52.236C61.4282 52.3283 61.3013 52.3687 61.1629 52.3571C60.5863 52.2764 60.0904 52.1841 59.6752 52.0803C57.8992 51.619 56.2961 50.8809 54.8661 49.8661C53.8281 50.0506 52.8132 50.1428 51.8214 50.1428C48.6961 50.1428 45.9743 49.3817 43.6562 47.8594C44.3251 47.9055 44.8326 47.9286 45.1786 47.9286C47.0353 47.9286 48.8171 47.6691 50.524 47.1501C52.2308 46.6311 53.7532 45.8873 55.091 44.9185C56.5326 43.8575 57.6397 42.635 58.4124 41.2511C59.1851 39.8672 59.5714 38.4025 59.5714 36.8571C59.5714 35.9691 59.4388 35.0926 59.1735 34.2277C60.6613 35.0465 61.8376 36.0729 62.7026 37.3069C63.5675 38.5409 64 39.8672 64 41.2857Z" fill="white"/>
</g>
</g>
</g>
<defs>
<filter id="filter0_dd_4_1594" x="-4" y="-8" width="104" height="104" filterUnits="userSpaceOnUse" color-interpolation-filters="sRGB">
<feFlood flood-opacity="0" result="BackgroundImageFix"/>
<feColorMatrix in="SourceAlpha" type="matrix" values="0 0 0 0 0 0 0 0 0 0 0 0 0 0 0 0 0 0 127 0" result="hardAlpha"/>
<feMorphology radius="5" operator="erode" in="SourceAlpha" result="effect1_dropShadow_4_1594"/>
<feOffset dy="7"/>
<feGaussianBlur stdDeviation="5"/>
<feComposite in2="hardAlpha" operator="out"/>
<feColorMatrix type="matrix" values="0 0 0 0 0.298039 0 0 0 0 0.686275 0 0 0 0 0.309804 0 0 0 0.4 0"/>
<feBlend mode="normal" in2="BackgroundImageFix" result="effect1_dropShadow_4_1594"/>
<feColorMatrix in="SourceAlpha" type="matrix" values="0 0 0 0 0 0 0 0 0 0 0 0 0 0 0 0 0 0 127 0" result="hardAlpha"/>
<feOffset dy="4"/>
<feGaussianBlur stdDeviation="10"/>
<feComposite in2="hardAlpha" operator="out"/>
<feColorMatrix type="matrix" values="0 0 0 0 0 0 0 0 0 0 0 0 0 0 0 0 0 0 0.14 0"/>
<feBlend mode="normal" in2="effect1_dropShadow_4_1594" result="effect2_dropShadow_4_1594"/>
<feBlend mode="normal" in="SourceGraphic" in2="effect2_dropShadow_4_1594" result="shape"/>
</filter>
<linearGradient id="paint0_linear_4_1594" x1="58.1436" y1="2.14359" x2="37.8564" y2="77.8564" gradientUnits="userSpaceOnUse">
<stop stop-color="#66BB6A"/>
<stop offset="1" stop-color="#43A047"/>
</linearGradient>
<clipPath id="clip0_4_1594">
<rect width="32" height="32" fill="white" transform="translate(32 24)"/>
</clipPath>
<clipPath id="clip1_4_1594">
<rect width="31" height="24.3571" fill="white" transform="translate(33 28)"/>
</clipPath>
</defs>
</svg>
